<svg width="734" height="640" viewBox="0 0 734 640" fill="none" xmlns="http://www.w3.org/2000/svg" xmlns:xlink="http://www.w3.org/1999/xlink">
<rect width="734" height="640" fill="url(#pattern0)"/>
<defs>
<pattern id="pattern0" patternContentUnits="objectBoundingBox" width="1" height="1">
<use xlink:href="#image0" transform="translate(-0.00408719) scale(0.0013624 0.0015625)"/>
</pattern>
<image id="image0" width="740" height="640" xlink:href="img/home-image.png"/>
</defs>
<path d="M223 532.7L443.8 540.7L513 527V548.7L444.5 568.4L223 557.4V532.7Z" fill="#3595F6" fill-opacity="0.75"/>
<path d="M224 531.7V506.7L444.3 510L514 506.7V526.7L444.7 539.7L224 531.7Z" fill="#3595F6" fill-opacity="0.75"/>
<path d="M224 505.7V480.7H445H514V503.7L446 510.7L224 505.7Z" fill="#3595F6" fill-opacity="0.75"/>
<path d="M224 481.7V456.7L445.3 453L513 459.7V481.7H445" fill="#3595F6" fill-opacity="0.75"/>
<path d="M224 455.7V429.7L445.5 426.4L514 437.4V458.7L445 452L224 455.7Z" fill="#3595F6" fill-opacity="0.75"/>
<path d="M223 428.7V405L444 392.7L515 415.7V437L444 424.7L223 428.7Z" fill="#3595F6" fill-opacity="0.75"/>
<path d="M223 406.7V381.7L445.2 365.4L515 394V414.7L444.7 393L223 406.7Z" fill="#3595F6" fill-opacity="0.75"/>
<path d="M223 381.7V356.7L445.5 336.4L515 373V393.7L443 365L223 381.7Z" fill="#3595F6" fill-opacity="0.75"/>
<path d="M223 355.7V331.7L446 307L515 351V372.7L445.7 334.7L223 355.7Z" fill="#3595F6" fill-opacity="0.75"/>
<path d="M223 330.7V306.7L445.5 278L515 329V349.7L444.7 307.4L223 330.7Z" fill="#3595F6" fill-opacity="0.75"/>
<path d="M222 306.7V282.7L444.3 249.7L515 309V328.7L445 278L222 306.7Z" fill="#3595F6" fill-opacity="0.75"/>
<path d="M223 281.7V257.7L444.2 222.7L514 286.7V307.7L445.3 249.4L223 281.7Z" fill="#3595F6" fill-opacity="0.75"/>
<path d="M223 257.7V232.7L445.3 194.7L514 265V285.7L445 221.7L223 257.7Z" fill="#3595F6" fill-opacity="0.75"/>
<path d="M223 231.7V206.7L443.8 163L514 242V264.7L445 191.4L223 231.7Z" fill="#3595F6" fill-opacity="0.75"/>
<path d="M224 207.7V182.7L444 134.7L514 219.7V242.7L443.3 163.4L224 207.7Z" fill="#3595F6" fill-opacity="0.75"/>
<path d="M223 182.7V157.7L442.8 105.7L514 198V220.7L444.3 134.4L223 182.7Z" fill="#3595F6" fill-opacity="0.75"/>
<path d="M223 157.7V131.7L445 75L514 176.7V197.7L444.7 106L223 157.7Z" fill="#3595F6" fill-opacity="0.75"/>
</svg>
